<svg xmlns="http://www.w3.org/2000/svg" xmlns:xlink="http://www.w3.org/1999/xlink" width="632" height="732" version="1.1">
<rect id="0" x="350" y="216" width="66" height="66" style="fill:none;stroke-width:1;stroke:rgb(0,0,0)" />
<rect id="1" x="416" y="216" width="66" height="66" style="fill:none;stroke-width:1;stroke:rgb(0,0,0)" />
<rect id="2" x="350" y="150" width="66" height="66" style="fill:none;stroke-width:1;stroke:rgb(0,0,0)" />
<rect id="3" x="416" y="150" width="66" height="66" style="fill:none;stroke-width:1;stroke:rgb(0,0,0)" />
<rect id="4" x="450" y="616" width="66" height="66" style="fill:none;stroke-width:1;stroke:rgb(0,0,0)" />
<rect id="5" x="516" y="616" width="66" height="66" style="fill:none;stroke-width:1;stroke:rgb(0,0,0)" />
<rect id="6" x="450" y="550" width="66" height="66" style="fill:none;stroke-width:1;stroke:rgb(0,0,0)" />
<rect id="7" x="516" y="550" width="66" height="66" style="fill:none;stroke-width:1;stroke:rgb(0,0,0)" />
<rect id="8" x="50" y="316" width="66" height="66" style="fill:none;stroke-width:1;stroke:rgb(0,0,0)" />
<rect id="9" x="116" y="316" width="66" height="66" style="fill:none;stroke-width:1;stroke:rgb(0,0,0)" />
<rect id="10" x="50" y="250" width="66" height="66" style="fill:none;stroke-width:1;stroke:rgb(0,0,0)" />
<rect id="11" x="116" y="250" width="66" height="66" style="fill:none;stroke-width:1;stroke:rgb(0,0,0)" />
<rect id="12" x="150" y="116" width="66" height="66" style="fill:none;stroke-width:1;stroke:rgb(0,0,0)" />
<rect id="13" x="216" y="116" width="66" height="66" style="fill:none;stroke-width:1;stroke:rgb(0,0,0)" />
<rect id="14" x="150" y="50" width="66" height="66" style="fill:none;stroke-width:1;stroke:rgb(0,0,0)" />
<rect id="15" x="216" y="50" width="66" height="66" style="fill:none;stroke-width:1;stroke:rgb(0,0,0)" />
<rect id="16" x="200" y="456" width="66" height="66" style="fill:none;stroke-width:1;stroke:rgb(0,0,0)" />
<rect id="17" x="266" y="456" width="66" height="66" style="fill:none;stroke-width:1;stroke:rgb(0,0,0)" />
<rect id="18" x="200" y="390" width="66" height="66" style="fill:none;stroke-width:1;stroke:rgb(0,0,0)" />
<rect id="19" x="266" y="390" width="66" height="66" style="fill:none;stroke-width:1;stroke:rgb(0,0,0)" />
<rect id="20" x="50" y="516" width="66" height="66" style="fill:none;stroke-width:1;stroke:rgb(0,0,0)" />
<rect id="21" x="116" y="516" width="66" height="66" style="fill:none;stroke-width:1;stroke:rgb(0,0,0)" />
<rect id="22" x="50" y="450" width="66" height="66" style="fill:none;stroke-width:1;stroke:rgb(0,0,0)" />
<rect id="23" x="116" y="450" width="66" height="66" style="fill:none;stroke-width:1;stroke:rgb(0,0,0)" />
<rect id="24" x="150" y="216" width="66" height="66" style="fill:none;stroke-width:1;stroke:rgb(0,0,0)" />
<rect id="25" x="216" y="216" width="66" height="66" style="fill:none;stroke-width:1;stroke:rgb(0,0,0)" />
<rect id="26" x="150" y="150" width="66" height="66" style="fill:none;stroke-width:1;stroke:rgb(0,0,0)" />
<rect id="27" x="216" y="150" width="66" height="66" style="fill:none;stroke-width:1;stroke:rgb(0,0,0)" />
<rect id="28" x="250" y="116" width="66" height="66" style="fill:none;stroke-width:1;stroke:rgb(0,0,0)" />
<rect id="29" x="316" y="116" width="66" height="66" style="fill:none;stroke-width:1;stroke:rgb(0,0,0)" />
<rect id="30" x="250" y="50" width="66" height="66" style="fill:none;stroke-width:1;stroke:rgb(0,0,0)" />
<rect id="31" x="316" y="50" width="66" height="66" style="fill:none;stroke-width:1;stroke:rgb(0,0,0)" />
<rect id="32" x="50" y="116" width="66" height="66" style="fill:none;stroke-width:1;stroke:rgb(0,0,0)" />
<rect id="33" x="116" y="116" width="66" height="66" style="fill:none;stroke-width:1;stroke:rgb(0,0,0)" />
<rect id="34" x="50" y="50" width="66" height="66" style="fill:none;stroke-width:1;stroke:rgb(0,0,0)" />
<rect id="35" x="116" y="50" width="66" height="66" style="fill:none;stroke-width:1;stroke:rgb(0,0,0)" />
<rect id="36" x="160" y="206" width="66" height="66" style="fill:none;stroke-width:1;stroke:rgb(0,0,0)" />
<rect id="37" x="226" y="206" width="66" height="66" style="fill:none;stroke-width:1;stroke:rgb(0,0,0)" />
<rect id="38" x="160" y="140" width="66" height="66" style="fill:none;stroke-width:1;stroke:rgb(0,0,0)" />
<rect id="39" x="226" y="140" width="66" height="66" style="fill:none;stroke-width:1;stroke:rgb(0,0,0)" />
<rect id="40" x="100" y="366" width="66" height="66" style="fill:none;stroke-width:1;stroke:rgb(0,0,0)" />
<rect id="41" x="166" y="366" width="66" height="66" style="fill:none;stroke-width:1;stroke:rgb(0,0,0)" />
<rect id="42" x="100" y="300" width="66" height="66" style="fill:none;stroke-width:1;stroke:rgb(0,0,0)" />
<rect id="43" x="166" y="300" width="66" height="66" style="fill:none;stroke-width:1;stroke:rgb(0,0,0)" />
<circle id="0" cx="416" cy="216" r="5" stroke="black" />
<circle id="1" cx="516" cy="616" r="5" stroke="black" />
<circle id="2" cx="116" cy="316" r="5" stroke="black" />
<circle id="3" cx="216" cy="116" r="5" stroke="black" />
<circle id="4" cx="266" cy="456" r="5" stroke="black" />
<circle id="5" cx="116" cy="516" r="5" stroke="black" />
<circle id="6" cx="216" cy="216" r="5" stroke="black" />
<circle id="7" cx="316" cy="116" r="5" stroke="black" />
<circle id="8" cx="116" cy="116" r="5" stroke="black" />
<circle id="9" cx="226" cy="206" r="5" stroke="black" />
<circle id="10" cx="166" cy="366" r="5" stroke="black" />
</svg>
