<svg xmlns="http://www.w3.org/2000/svg" xmlns:xlink="http://www.w3.org/1999/xlink" width="632" height="732" version="1.1">
<rect id="0" x="350" y="216" width="66" height="66" style="fill:none;stroke-width:1;stroke:rgb(0,0,0)" />
<rect id="1" x="516" y="550" width="66" height="66" style="fill:none;stroke-width:1;stroke:rgb(0,0,0)" />
<rect id="2" x="50" y="316" width="66" height="66" style="fill:none;stroke-width:1;stroke:rgb(0,0,0)" />
<rect id="3" x="150" y="50" width="66" height="66" style="fill:none;stroke-width:1;stroke:rgb(0,0,0)" />
<rect id="4" x="200" y="390" width="66" height="66" style="fill:none;stroke-width:1;stroke:rgb(0,0,0)" />
<rect id="5" x="50" y="516" width="66" height="66" style="fill:none;stroke-width:1;stroke:rgb(0,0,0)" />
<rect id="6" x="216" y="216" width="66" height="66" style="fill:none;stroke-width:1;stroke:rgb(0,0,0)" />
<rect id="7" x="316" y="116" width="66" height="66" style="fill:none;stroke-width:1;stroke:rgb(0,0,0)" />
<rect id="8" x="50" y="116" width="66" height="66" style="fill:none;stroke-width:1;stroke:rgb(0,0,0)" />
<rect id="9" x="226" y="140" width="66" height="66" style="fill:none;stroke-width:1;stroke:rgb(0,0,0)" />
<rect id="10" x="166" y="300" width="66" height="66" style="fill:none;stroke-width:1;stroke:rgb(0,0,0)" />
<circle id="0" cx="416" cy="216" r="5" stroke="black" />
<circle id="1" cx="516" cy="616" r="5" stroke="black" />
<circle id="2" cx="116" cy="316" r="5" stroke="black" />
<circle id="3" cx="216" cy="116" r="5" stroke="black" />
<circle id="4" cx="266" cy="456" r="5" stroke="black" />
<circle id="5" cx="116" cy="516" r="5" stroke="black" />
<circle id="6" cx="216" cy="216" r="5" stroke="black" />
<circle id="7" cx="316" cy="116" r="5" stroke="black" />
<circle id="8" cx="116" cy="116" r="5" stroke="black" />
<circle id="9" cx="226" cy="206" r="5" stroke="black" />
<circle id="10" cx="166" cy="366" r="5" stroke="black" />
</svg>
